<svg width="272" height="38" viewBox="0 0 272 38" fill="none" xmlns="http://www.w3.org/2000/svg">
<path d="M52.661 1.51282C50.6789 3.59006 50.0932 4.69642 48.6742 7.83486L35.5878 38L26.3305 16.8664L17.1858 38L3.98674 7.85744C2.6353 4.719 2.02715 3.70295 0 1.51282H16.7353C15.4739 2.57402 14.8208 3.95132 14.8208 5.6673C14.8208 6.88656 15.0235 7.74455 15.6767 9.32506L20.677 21.2918L24.3709 12.3732L22.2987 7.54134C21.0824 4.76415 20.2265 3.02559 19.0102 1.51282H35.7455C34.1238 2.57402 33.3129 3.95132 33.3129 5.6673C33.3129 6.88656 33.5156 7.74455 34.1688 9.32506L39.2817 21.2918L44.3271 9.32506C44.9803 7.74455 45.2281 6.88656 45.2281 5.73504C45.2281 4.22227 44.1694 2.39339 42.9531 1.5354H52.661V1.51282Z" fill="#161616"/>
<path d="M71.3107 28.3815C69.689 35.426 65.7923 37.7516 60.1388 37.7516C53.6744 37.7516 47.6155 33.0327 47.6155 24.1818C47.6155 15.6696 52.9762 9.64111 60.0037 9.64111C64.5985 9.64111 71.0629 12.0119 71.0629 22.0594H55.7917C56.8503 27.4331 60.3415 30.2103 65.1842 30.2103C67.6618 30.1878 69.3961 29.7362 71.3107 28.3815ZM55.4989 18.5371V19.1919H62.166C62.166 14.1343 61.0623 12.5538 58.9225 12.5538C56.7602 12.5538 55.4989 14.7439 55.4989 18.5371Z" fill="#161616"/>
<path d="M103.205 10.6797C99.0154 6.6833 94.871 4.60606 91.6726 4.60606V26.959C91.6726 31.4747 92.8438 34.2068 95.9071 36.984H76.8068C79.8926 34.2068 81.0413 31.4522 81.0413 26.959V4.60606C77.8654 4.60606 73.5183 6.6833 69.509 10.6797L71.5362 0C72.9101 1.0612 75.4328 1.51277 78.2483 1.51277H94.4205C97.2585 1.51277 99.7812 1.0612 101.133 0L103.205 10.6797Z" fill="#161616"/>
<path d="M116.088 36.984H100.006C101.988 34.6583 102.844 33.123 102.844 29.4427V21.224C102.844 18.3339 102.439 16.9792 100.524 15.1955L99.4204 14.1794L111.561 9.61853V15.9406C112.732 12.2828 114.534 9.61853 117.53 9.61853C119.962 9.61853 121.516 11.3345 121.516 13.8633C121.516 16.5502 119.85 18.4242 117.53 18.4242C117.034 17.2501 115.818 16.7083 114.692 16.7083C113.791 16.7083 112.912 16.9566 112.462 17.4082V29.1266C112.439 33.0327 113.092 34.0939 116.088 36.984Z" fill="#161616"/>
<path d="M150.302 32.3327C149.694 35.5163 147.059 37.7516 143.478 37.7516C140.437 37.7516 138.117 35.9228 137.419 33.8455C135.91 36.5775 133.072 37.7516 130.031 37.7516C125.841 37.7516 123.003 34.9744 123.003 31.1586C123.003 26.7106 126.179 23.6173 133.522 21.8336L136.901 21.0208V16.4599C136.901 13.615 135.932 12.4635 134.22 12.4635C132.599 12.4635 131.54 13.5247 131.54 14.9923C131.54 16.2567 132.148 17.0695 133.207 18.0856C133.207 19.7112 130.684 21.3821 128.049 21.3821C125.481 21.3821 123.657 19.3951 123.657 16.9792C123.657 12.6667 128.409 9.64111 135.392 9.64111C142.667 9.64111 146.518 12.7344 146.518 19.6209V30.5039C146.518 31.8812 147.329 32.7843 148.591 32.7843C149.334 32.7843 149.897 32.6263 150.302 32.3327ZM136.901 31.5651V23.4141L136.248 23.6173C134.085 24.2721 132.599 25.6946 132.599 28.5395C132.599 30.978 133.567 32.4456 135.121 32.4456C135.955 32.423 136.608 32.1747 136.901 31.5651Z" fill="#161616"/>
<path d="M165.258 36.984H151.654C153.073 35.6066 153.974 33.5971 153.974 29.4427V21.224C153.974 18.4468 153.613 17.0244 151.946 15.4438L150.775 14.3826L163.298 9.61853V13.5698C164.763 11.1313 167.848 9.61853 170.934 9.61853C175.777 9.61853 178.457 12.2602 178.457 16.9566V31.1586C178.457 34.0487 179.223 35.8099 180.439 36.984H167.195C168.501 35.7195 168.862 34.0036 168.862 32.6263V18.1307C168.862 16.0083 168.164 14.9471 166.182 14.9471C165.078 14.9471 164.154 15.3535 163.546 15.9632V32.6263C163.591 34.0036 163.952 35.6744 165.258 36.984Z" fill="#161616"/>
<path d="M184.201 35.5163V26.8461C187.85 31.6102 191.634 34.2519 195.17 34.2519C196.882 34.2519 197.693 33.3488 197.693 32.0844C197.693 30.8651 197.04 30.1652 195.868 29.7136L190.012 27.546C185.507 25.8752 183.503 23.098 183.503 18.9436C183.503 13.5698 187.895 9.6637 194.157 9.6637C197.535 9.6637 201.274 10.6346 203.144 11.9893V19.3951C200.824 15.2858 197.017 13.0053 193.346 13.0053C191.476 13.0053 190.508 13.615 190.508 14.7891C190.508 15.9632 191.206 16.4147 192.783 17.0695L199.72 19.8693C203.211 21.2917 204.765 24.2721 204.765 27.8847C204.765 33.8229 200.463 37.7742 193.999 37.7742C190.778 37.7516 187.444 37.0291 184.201 35.5163Z" fill="#161616"/>
<path d="M207.063 12.915L209.991 8.39929C213.73 2.73203 216.703 0 221.748 0C225.69 0 228.213 1.71598 228.213 4.31254C228.213 6.54783 226.388 8.1735 222.559 8.1735C222.559 5.03506 220.78 3.86096 219.023 3.86096C217.244 3.86096 215.892 5.12537 215.892 7.20261C215.892 8.62507 216.658 10.0475 218.978 10.3862H224.586L222.559 12.915H219.113V27.9525C219.113 30.7974 219.563 33.3262 222.492 35.9002L223.708 36.9614H206.274C208.302 34.9293 209.518 32.4456 209.518 28.8105V12.915H207.063Z" fill="#161616"/>
<path d="M247.944 28.3815C246.322 35.426 242.426 37.7516 236.772 37.7516C230.308 37.7516 224.249 33.0327 224.249 24.1818C224.249 15.6696 229.609 9.64111 236.637 9.64111C241.232 9.64111 247.696 12.0119 247.696 22.0594H232.425C233.484 27.4331 236.975 30.2103 241.817 30.2103C244.295 30.1878 246.007 29.7362 247.944 28.3815ZM232.11 18.5371V19.1919H238.777C238.777 14.1343 237.673 12.5538 235.533 12.5538C233.394 12.5538 232.11 14.7439 232.11 18.5371Z" fill="#161616"/>
<path d="M266.12 36.984H250.038C252.02 34.6583 252.876 33.123 252.876 29.4427V21.224C252.876 18.3339 252.471 16.9792 250.556 15.1955L249.453 14.1794L261.593 9.61853V15.9406C262.764 12.2828 264.566 9.61853 267.562 9.61853C269.995 9.61853 271.549 11.3345 271.549 13.8633C271.549 16.5502 269.882 18.4242 267.562 18.4242C267.066 17.2501 265.85 16.7083 264.724 16.7083C263.823 16.7083 262.944 16.9566 262.494 17.4082V29.1266C262.494 33.0327 263.147 34.0939 266.12 36.984Z" fill="#161616"/>
</svg>
